<svg width="8" height="14" viewBox="0 0 8 14" fill="none" xmlns="http://www.w3.org/2000/svg">
<path d="M0.355291 0.842019C0.242666 0.94973 0.153312 1.07767 0.0923468 1.21852C0.0313812 1.35936 0 1.51035 0 1.66283C0 1.81531 0.0313812 1.9663 0.0923468 2.10714C0.153312 2.24799 0.242666 2.37593 0.355291 2.48364L5.06911 7.00101L0.355291 11.5184C0.128132 11.7361 0.000514428 12.0313 0.000514428 12.3392C0.000514428 12.6471 0.128132 12.9423 0.355291 13.16C0.582451 13.3777 0.890546 13.5 1.2118 13.5C1.53305 13.5 1.84114 13.3777 2.0683 13.16L7.64471 7.816C7.75734 7.70829 7.84669 7.58035 7.90765 7.43951C7.96862 7.29866 8 7.14768 8 6.99519C8 6.84271 7.96862 6.69172 7.90765 6.55088C7.84669 6.41003 7.75734 6.28209 7.64471 6.17438L2.0683 0.830376C1.60664 0.387953 0.829104 0.387953 0.355291 0.842019Z" fill="#979797"/>
</svg>
