<svg width="18" height="18" viewBox="0 0 18 18" fill="none" xmlns="http://www.w3.org/2000/svg">
<path d="M12 9C12 8.60218 12.158 8.22064 12.4393 7.93934C12.7206 7.65804 13.1022 7.5 13.5 7.5C13.8978 7.5 14.2794 7.65804 14.5607 7.93934C14.842 8.22064 15 8.60218 15 9C15 9.39782 14.842 9.77936 14.5607 10.0607C14.2794 10.342 13.8978 10.5 13.5 10.5C13.1022 10.5 12.7206 10.342 12.4393 10.0607C12.158 9.77936 12 9.39782 12 9ZM7.5 9C7.5 8.60218 7.65804 8.22064 7.93934 7.93934C8.22064 7.65804 8.60218 7.5 9 7.5C9.39783 7.5 9.77936 7.65804 10.0607 7.93934C10.342 8.22064 10.5 8.60218 10.5 9C10.5 9.39782 10.342 9.77936 10.0607 10.0607C9.77936 10.342 9.39783 10.5 9 10.5C8.60218 10.5 8.22064 10.342 7.93934 10.0607C7.65804 9.77936 7.5 9.39782 7.5 9ZM3 9C3 8.60218 3.15804 8.22064 3.43934 7.93934C3.72064 7.65804 4.10218 7.5 4.5 7.5C4.89782 7.5 5.27936 7.65804 5.56066 7.93934C5.84196 8.22064 6 8.60218 6 9C6 9.39782 5.84196 9.77936 5.56066 10.0607C5.27936 10.342 4.89782 10.5 4.5 10.5C4.10218 10.5 3.72064 10.342 3.43934 10.0607C3.15804 9.77936 3 9.39782 3 9Z" fill="#535353"/>
</svg>
