<svg width="68" height="16" viewBox="0 0 68 16" fill="none" xmlns="http://www.w3.org/2000/svg">
<g clip-path="url(#clip0_1501_25386)">
<path d="M49.6997 4C46.4187 4 43.7598 6.68564 43.7598 9.99949C43.7598 13.3133 46.4187 15.999 49.6997 15.999C52.9806 15.999 55.6396 13.3133 55.6396 9.99949C55.6396 6.68564 52.9806 4 49.6997 4ZM49.6997 12.6668C48.2424 12.6668 47.0588 11.4734 47.0588 9.99949C47.0588 8.52554 48.2404 7.33215 49.6997 7.33215C51.157 7.33215 52.3405 8.52554 52.3405 9.99949C52.3405 11.4734 51.159 12.6668 49.6997 12.6668Z" fill="#4285F4"/>
<path d="M41.2293 0C40.3175 0 39.5788 0.746125 39.5788 1.66709V4.62516C38.7837 4.22668 37.888 3.99898 36.938 3.99898C33.657 3.99898 30.998 6.68463 30.998 9.99848C30.998 13.3123 33.657 15.998 36.938 15.998C40.1444 15.998 42.7571 13.4302 42.8738 10.2201H42.8799V1.66709C42.8799 0.746125 42.1412 0 41.2293 0ZM36.938 12.6679C35.4807 12.6679 34.2971 11.4745 34.2971 10.0005C34.2971 8.52656 35.4786 7.33316 36.938 7.33316C38.3953 7.33316 39.5788 8.52656 39.5788 10.0005C39.5788 11.4745 38.3973 12.6679 36.938 12.6679Z" fill="#4285F4"/>
<path d="M5.93991 3.84766C2.65897 3.84766 0 6.53533 0 9.84918C0 13.163 2.65897 15.8487 5.93991 15.8487C9.22085 15.8487 11.8798 13.163 11.8798 9.84918C11.8798 6.53533 9.22085 3.84766 5.93991 3.84766ZM5.93991 12.5165C4.48261 12.5165 3.29906 11.3231 3.29906 9.84918C3.29906 8.37523 4.4806 7.18184 5.93991 7.18184C7.39721 7.18184 8.58077 8.37523 8.58077 9.84918C8.58077 11.3231 7.39922 12.5165 5.93991 12.5165Z" fill="#4285F4"/>
<path d="M22.0145 11.1978C21.4711 11.1226 20.9417 11.3584 20.5774 11.7711C20.0943 12.32 19.3898 12.6677 18.6068 12.6677C17.9164 12.6677 17.2904 12.3973 16.8194 11.9602L21.145 10.7322L22.3024 10.4029C23.7778 9.98406 24.4964 8.26004 23.7114 6.93247C23.7073 6.92434 23.7013 6.9162 23.6973 6.90807C22.6043 5.07834 20.5733 3.88698 18.2767 4.01303C15.2977 4.17364 12.8621 6.61328 12.6769 9.62014C12.4616 13.1068 15.199 16.0039 18.6068 16.0039C20.3861 16.0039 21.9823 15.213 23.0693 13.9607C23.9126 12.9889 23.4195 11.395 22.0145 11.1978ZM18.6068 7.33501C19.2147 7.33501 19.7742 7.54441 20.2211 7.89409L16.141 9.05293C16.5195 8.05064 17.4796 7.33501 18.6068 7.33501Z" fill="#4285F4"/>
<path d="M28.8235 14.1727V13.8881C28.8235 13.0464 28.1472 12.3633 27.3139 12.3633H27.0321C26.1988 12.3633 25.5225 13.0464 25.5225 13.8881V14.1727C25.5225 15.0144 26.1988 15.6975 27.0321 15.6975H27.3139C28.1472 15.6975 28.8235 15.0144 28.8235 14.1727Z" fill="#4285F4"/>
<path d="M66.3855 10.2221H66.2949C65.6608 10.2221 65.1073 10.6084 64.8275 11.1817C64.3968 12.062 63.4991 12.6679 62.4624 12.6679C61.0776 12.6679 59.9444 11.5924 59.8337 10.2241H59.8216V10.0025V7.17052L64.1311 5.83075C64.9745 5.56849 65.4475 4.66582 65.1878 3.81601L65.1556 3.71233C64.896 2.86048 64.0023 2.38272 63.1609 2.64498L59.8216 3.68183V1.66709C59.8216 0.746124 59.0829 0 58.171 0C57.2592 0 56.5205 0.746124 56.5205 1.66709V3.55578V6.88996V10.2241H56.5265C56.5265 10.2404 56.5265 10.2546 56.5265 10.2709C56.6574 13.2818 59.0446 15.7703 62.0216 15.9858C64.592 16.1728 66.8464 14.705 67.8468 12.5316C68.344 11.4541 67.561 10.2221 66.3855 10.2221Z" fill="#4285F4"/>
</g>
<defs>
<clipPath id="clip0_1501_25386">
<rect width="68" height="16" fill="white"/>
</clipPath>
</defs>
</svg>
