<svg width="86" height="20" viewBox="0 0 86 20" fill="none" xmlns="http://www.w3.org/2000/svg">
<g clip-path="url(#clip0_610_4573)">
<path d="M62.855 5C58.7056 5 55.3428 8.35705 55.3428 12.4994C55.3428 16.6417 58.7056 19.9987 62.855 19.9987C67.0044 19.9987 70.3673 16.6417 70.3673 12.4994C70.3673 8.35705 67.0044 5 62.855 5ZM62.855 15.8335C61.012 15.8335 59.5151 14.3418 59.5151 12.4994C59.5151 10.6569 61.0094 9.16518 62.855 9.16518C64.6981 9.16518 66.1949 10.6569 66.1949 12.4994C66.1949 14.3418 64.7006 15.8335 62.855 15.8335Z" fill="white"/>
<path d="M52.1427 0C50.9895 0 50.0553 0.932656 50.0553 2.08386V5.78145C49.0497 5.28335 47.9169 4.99873 46.7154 4.99873C42.5659 4.99873 39.2031 8.35578 39.2031 12.4981C39.2031 16.6404 42.5659 19.9975 46.7154 19.9975C50.7706 19.9975 54.0749 16.7878 54.2225 12.7751H54.2302V2.08386C54.2302 0.932656 53.2959 0 52.1427 0ZM46.7154 15.8348C44.8723 15.8348 43.3755 14.3431 43.3755 12.5006C43.3755 10.6582 44.8698 9.16646 46.7154 9.16646C48.5584 9.16646 50.0553 10.6582 50.0553 12.5006C50.0553 14.3431 48.561 15.8348 46.7154 15.8348Z" fill="white"/>
<path d="M7.51224 4.80859C3.36282 4.80859 0 8.16819 0 12.3105C0 16.4528 3.36282 19.8099 7.51224 19.8099C11.6617 19.8099 15.0245 16.4528 15.0245 12.3105C15.0245 8.16819 11.6617 4.80859 7.51224 4.80859ZM7.51224 15.6447C5.66918 15.6447 4.17234 14.1529 4.17234 12.3105C4.17234 10.4681 5.66664 8.97632 7.51224 8.97632C9.3553 8.97632 10.8521 10.4681 10.8521 12.3105C10.8521 14.1529 9.35784 15.6447 7.51224 15.6447Z" fill="white"/>
<path d="M27.8419 13.9962C27.1546 13.9022 26.4851 14.197 26.0243 14.7129C25.4134 15.399 24.5224 15.8336 23.5321 15.8336C22.659 15.8336 21.8673 15.4956 21.2716 14.9492L26.7422 13.4143L28.206 13.0026C30.0719 12.4791 30.9807 10.3241 29.9879 8.66461C29.9828 8.65444 29.9752 8.64428 29.9701 8.63411C28.5878 6.34695 26.0192 4.85775 23.1146 5.01531C19.3471 5.21607 16.2668 8.26563 16.0326 12.0242C15.7602 16.3825 19.2223 20.0039 23.5321 20.0039C25.7825 20.0039 27.8012 19.0153 29.1759 17.4499C30.2425 16.2351 29.6188 14.2428 27.8419 13.9962ZM23.5321 9.16779C24.3009 9.16779 25.0086 9.42954 25.5738 9.86664L20.4137 11.3152C20.8923 10.0623 22.1066 9.16779 23.5321 9.16779Z" fill="white"/>
<path d="M36.4542 17.7149V17.3591C36.4542 16.307 35.5988 15.4531 34.5449 15.4531H34.1885C33.1346 15.4531 32.2793 16.307 32.2793 17.3591V17.7149C32.2793 18.767 33.1346 19.6209 34.1885 19.6209H34.5449C35.5988 19.6209 36.4542 18.767 36.4542 17.7149Z" fill="white"/>
<path d="M83.9587 12.7776H83.8441C83.0423 12.7776 82.3422 13.2605 81.9884 13.9771C81.4436 15.0775 80.3082 15.8348 78.9972 15.8348C77.2458 15.8348 75.8126 14.4905 75.6726 12.7802H75.6573V12.5032V8.96315L81.1076 7.28844C82.1742 6.96061 82.7724 5.83227 82.444 4.77001L82.4033 4.64041C82.0749 3.5756 80.9446 2.9784 79.8806 3.30623L75.6573 4.60229V2.08386C75.6573 0.932656 74.723 0 73.5699 0C72.4167 0 71.4824 0.932656 71.4824 2.08386V4.44473V8.61245V12.7802H71.4901C71.4901 12.8005 71.4901 12.8183 71.4901 12.8386C71.6555 16.6023 74.6747 19.7128 78.4397 19.9822C81.6905 20.216 84.5417 18.3812 85.8069 15.6645C86.4356 14.3177 85.4454 12.7776 83.9587 12.7776Z" fill="white"/>
</g>
<defs>
<clipPath id="clip0_610_4573">
<rect width="86" height="20" fill="white"/>
</clipPath>
</defs>
</svg>
